<svg width="32" height="32" viewBox="0 0 32 32" fill="none" xmlns="http://www.w3.org/2000/svg">
<path d="M16.0028 21C18.212 21 20.0028 19.2091 20.0028 17C20.0028 14.7909 18.212 13 16.0028 13C13.7937 13 12.0028 14.7909 12.0028 17C12.0028 19.2091 13.7937 21 16.0028 21Z" fill="black"/>
<path fill-rule="evenodd" clip-rule="evenodd" d="M19.0239 5C20.247 5 21.3805 5.64173 22.0097 6.69053C22.5955 7.66675 23.6228 8.29093 24.757 8.38877C25.0632 8.41519 25.3582 8.44204 25.6414 8.46901C28.1645 8.70935 30 10.8581 30 13.3926V19.9273C30 23.4116 27.4355 26.3611 23.9626 26.642C21.5561 26.8366 18.6627 27 15.7292 27C12.9103 27 10.21 26.8491 7.96137 26.6646C4.5197 26.3822 2 23.4518 2 19.9986V13.3691C2 10.8385 3.81265 8.68835 6.33135 8.44328C6.62893 8.41433 6.94017 8.38563 7.26454 8.35758C8.38975 8.2603 9.41 7.64236 9.99108 6.6739C10.6142 5.63542 11.7364 5 12.9475 5H19.0239ZM15.9991 23C19.3128 23 21.9991 20.3137 21.9991 17C21.9991 13.6863 19.3128 11 15.9991 11C12.6854 11 9.99911 13.6863 9.99911 17C9.99911 20.3137 12.6854 23 15.9991 23ZM27.0249 13.5C27.0249 14.3284 26.3534 15 25.5249 15C24.6965 15 24.0249 14.3284 24.0249 13.5C24.0249 12.6716 24.6965 12 25.5249 12C26.3534 12 27.0249 12.6716 27.0249 13.5Z" fill="black"/>
</svg>
