<svg width="27" height="24" viewBox="0 0 27 24" fill="none" xmlns="http://www.w3.org/2000/svg">
<path d="M12.1445 19.5996C11.4238 19.5996 10.9199 19.4912 10.6328 19.2744C10.3457 19.0635 10.2021 18.7559 10.2021 18.3516C10.2021 17.7832 10.3721 17.1885 10.7119 16.5674C11.0576 15.9463 11.5527 15.3633 12.1973 14.8184C12.8477 14.2734 13.6299 13.8311 14.5439 13.4912C15.458 13.1514 16.4834 12.9814 17.6201 12.9814C18.7627 12.9814 19.791 13.1514 20.7051 13.4912C21.6191 13.8311 22.3984 14.2734 23.043 14.8184C23.6934 15.3633 24.1914 15.9463 24.5371 16.5674C24.8828 17.1885 25.0557 17.7832 25.0557 18.3516C25.0557 18.7559 24.9092 19.0635 24.6162 19.2744C24.3291 19.4912 23.8252 19.5996 23.1045 19.5996H12.1445ZM17.6289 11.417C16.9844 11.417 16.3926 11.2441 15.8535 10.8984C15.3203 10.5527 14.8926 10.0869 14.5703 9.50098C14.248 8.91504 14.0869 8.25879 14.0869 7.53223C14.0869 6.81738 14.248 6.17285 14.5703 5.59863C14.8984 5.01855 15.332 4.55859 15.8711 4.21875C16.4102 3.87891 16.9961 3.70898 17.6289 3.70898C18.2676 3.70898 18.8535 3.87598 19.3867 4.20996C19.9258 4.54395 20.3564 5.00098 20.6787 5.58105C21.0068 6.15527 21.1709 6.7998 21.1709 7.51465C21.1709 8.24707 21.0068 8.90918 20.6787 9.50098C20.3564 10.0869 19.9258 10.5527 19.3867 10.8984C18.8535 11.2441 18.2676 11.417 17.6289 11.417ZM2.62598 19.5996C2.03418 19.5996 1.61523 19.4795 1.36914 19.2393C1.12305 19.0049 1 18.6709 1 18.2373C1 17.6396 1.15234 17.0332 1.45703 16.418C1.76172 15.7969 2.19531 15.2256 2.75781 14.7041C3.32617 14.1826 4.00586 13.7607 4.79688 13.4385C5.59375 13.1162 6.48438 12.9551 7.46875 12.9551C8.26562 12.9551 8.97754 13.0605 9.60449 13.2715C10.2373 13.4766 10.7969 13.7344 11.2832 14.0449C10.7852 14.4375 10.3545 14.8828 9.99121 15.3809C9.62793 15.873 9.34668 16.3799 9.14746 16.9014C8.9541 17.417 8.85742 17.9092 8.85742 18.3779C8.85742 18.8525 8.97461 19.2598 9.20898 19.5996H2.62598ZM7.46875 11.6191C6.91211 11.6191 6.39941 11.4697 5.93066 11.1709C5.46191 10.8662 5.08691 10.459 4.80566 9.94922C4.52441 9.43359 4.38379 8.8623 4.38379 8.23535C4.38379 7.6084 4.52441 7.0459 4.80566 6.54785C5.09277 6.04395 5.4707 5.64551 5.93945 5.35254C6.4082 5.05371 6.91797 4.9043 7.46875 4.9043C8.01953 4.9043 8.5293 5.05078 8.99805 5.34375C9.47266 5.63086 9.85059 6.02637 10.1318 6.53027C10.4131 7.02832 10.5537 7.59082 10.5537 8.21777C10.5537 8.85645 10.4131 9.43359 10.1318 9.94922C9.85059 10.459 9.47559 10.8662 9.00684 11.1709C8.53809 11.4697 8.02539 11.6191 7.46875 11.6191Z" fill="white"/>
<path d="M7.46875 12.4551C8.30665 12.4551 9.07174 12.5659 9.75781 12.7959H9.75879C10.426 13.0121 11.0256 13.2865 11.5527 13.623L12.1455 14.002L11.5928 14.4375C11.1295 14.8027 10.7312 15.2156 10.3955 15.6758L10.3936 15.6777C10.0546 16.137 9.79588 16.6047 9.61426 17.0801C9.43917 17.5479 9.35742 17.9795 9.35742 18.3779C9.35742 18.7666 9.45179 19.0712 9.62012 19.3154L10.1611 20.0996H2.62598C1.99329 20.0996 1.41186 19.9757 1.02441 19.6006V19.6016C0.653633 19.2484 0.5 18.7678 0.5 18.2373C0.5 17.552 0.675111 16.8701 1.00879 16.1963C1.34321 15.5151 1.81586 14.8961 2.41797 14.3379L2.41992 14.3359C3.03651 13.7702 3.76825 13.3179 4.6084 12.9756L4.60938 12.9746C5.4738 12.625 6.4294 12.4551 7.46875 12.4551ZM17.6201 12.4814C18.812 12.4814 19.9005 12.6588 20.8789 13.0225C21.8389 13.3794 22.6713 13.849 23.3662 14.4365H23.3652C24.0529 15.0129 24.5933 15.641 24.9736 16.3242C25.3505 17.0013 25.5557 17.6793 25.5557 18.3516C25.5557 18.8906 25.3513 19.3558 24.917 19.6729C24.915 19.6744 24.9132 19.6762 24.9111 19.6777C24.9101 19.6785 24.9092 19.6799 24.9082 19.6807L24.9072 19.6797C24.4812 19.9957 23.8372 20.0996 23.1045 20.0996H12.1445C11.4063 20.0996 10.757 19.9954 10.3311 19.6738V19.6729C9.90114 19.3541 9.70215 18.8879 9.70215 18.3516C9.70215 17.6811 9.90307 17.004 10.2734 16.3271L10.2754 16.3242C10.6553 15.6417 11.192 15.0132 11.874 14.4365L11.876 14.4355C12.5761 13.849 13.4104 13.3793 14.3701 13.0225C15.3482 12.6589 16.4337 12.4814 17.6201 12.4814ZM7.46875 4.4043C8.11091 4.4043 8.70979 4.5764 9.25586 4.91602H9.25684C9.808 5.24944 10.2457 5.70877 10.5674 6.28418L10.6826 6.50488C10.9325 7.02732 11.0537 7.60123 11.0537 8.21777C11.0537 8.93261 10.8951 9.59309 10.5703 10.1885L10.5693 10.1904C10.2501 10.769 9.81974 11.2385 9.2793 11.5898L9.27539 11.5928C8.7263 11.9427 8.12038 12.1191 7.46875 12.1191C6.81712 12.1191 6.2112 11.9427 5.66211 11.5928L5.6582 11.5898C5.11776 11.2385 4.68736 10.769 4.36816 10.1904L4.36719 10.1885C4.04318 9.59447 3.88379 8.94015 3.88379 8.23535C3.88379 7.53074 4.04251 6.88189 4.37012 6.30176L4.37109 6.30078C4.69641 5.72982 5.13008 5.26949 5.6709 4.93066L5.87891 4.80762C6.37038 4.53965 6.90275 4.4043 7.46875 4.4043ZM17.6289 3.20898C18.3593 3.20898 19.0368 3.40127 19.6504 3.78516L19.875 3.93457C20.3839 4.29739 20.7972 4.76571 21.1133 5.33301L21.2441 5.58203C21.5304 6.17233 21.6709 6.8192 21.6709 7.51465C21.6709 8.32399 21.4882 9.06965 21.1162 9.74121C20.756 10.3961 20.2697 10.9248 19.6582 11.3174C19.0436 11.7158 18.3636 11.917 17.6289 11.917C16.8895 11.917 16.2041 11.7169 15.584 11.3193L15.5811 11.3184C14.975 10.9254 14.4917 10.3965 14.1318 9.74219C13.7655 9.07614 13.5869 8.33556 13.5869 7.53223C13.5869 6.73922 13.767 6.00879 14.1348 5.35352V5.35254C14.5017 4.70392 14.9923 4.18188 15.6045 3.7959C16.2228 3.4061 16.901 3.20898 17.6289 3.20898Z" stroke="black" stroke-opacity="0.1"/>
</svg>
