<svg width="24" height="24" viewBox="0 0 24 24" fill="none" xmlns="http://www.w3.org/2000/svg">
<path d="M3.07945 9.43363C2.39547 10.0036 2 10.848 2 11.7383V18.9998C2 20.6567 3.34315 21.9998 5 21.9998H7.01851C7.56225 21.99 8 21.5461 8 21V18C8 15.7909 9.79086 14 12 14C14.2091 14 16 15.7909 16 18V21C16 21.5461 16.4377 21.99 16.9815 21.9998H19C20.6569 21.9998 22 20.6567 22 18.9998V11.7383C22 10.8479 21.6045 10.0036 20.9206 9.43363L12.9603 2.80006C12.404 2.3365 11.596 2.3365 11.0397 2.80006L3.07945 9.43363Z" fill="white"/>
<path d="M10.7197 2.41626C11.4614 1.79818 12.5386 1.79818 13.2803 2.41626L21.2402 9.04907C22.0382 9.71405 22.5 10.6998 22.5 11.7385V19.0002C22.4998 20.933 20.9329 22.5002 19 22.5002H16.9727V22.4993C16.1569 22.4845 15.5001 21.8193 15.5 21.0002V18.0002C15.5 16.0672 13.933 14.5002 12 14.5002C10.067 14.5002 8.5 16.0672 8.5 18.0002V21.0002C8.49987 21.8193 7.84307 22.4845 7.02734 22.4993L7.01855 22.5002H5C3.06714 22.5002 1.50022 20.9331 1.5 19.0002V11.7385C1.5 10.6998 1.96179 9.71405 2.75977 9.04907L10.7197 2.41626Z" stroke="black" stroke-opacity="0.1"/>
</svg>
