<svg width="24" height="24" viewBox="0 0 24 24" fill="none" xmlns="http://www.w3.org/2000/svg">
<path d="M1.83035 6.38799C3.52801 5.61412 5.95839 4.57817 8.99139 3.47526C12.8696 2.06499 16.6384 1.64002 18.9378 1.52046C20.22 1.45379 21.2337 2.4634 21.1743 3.74593C21.0713 5.97132 20.7031 9.65917 19.4939 13.9778C18.4362 17.7555 17.2633 20.2919 16.3976 21.838C15.8633 22.7921 14.6079 22.6511 14.1642 21.6517L10.7427 13.9457L15.9965 7.73281C16.2061 7.48504 16.1907 7.11803 15.9613 6.88858C15.7356 6.66289 15.376 6.64387 15.1278 6.84451L8.78291 11.9727L1.88503 8.96596C0.737756 8.46587 0.691563 6.9071 1.83035 6.38799Z" fill="white"/>
</svg>
