<svg width="25" height="27" viewBox="0 0 25 27" fill="none" xmlns="http://www.w3.org/2000/svg">
<g filter="url(#filter0_d_141_5462)">
<path d="M2.83035 6.38799C4.52801 5.61412 6.95839 4.57817 9.99139 3.47526C13.8696 2.06499 17.6384 1.64002 19.9378 1.52046C21.22 1.45379 22.2337 2.4634 22.1743 3.74593C22.0713 5.97132 21.7032 9.65917 20.4939 13.9778C19.4362 17.7555 18.2633 20.2919 17.3976 21.838C16.8633 22.7921 15.6079 22.6511 15.1642 21.6517L11.7427 13.9457L16.9965 7.73281C17.2061 7.48504 17.1907 7.11803 16.9613 6.88858C16.7356 6.66289 16.376 6.64387 16.1278 6.84451L9.78291 11.9727L2.88503 8.96596C1.73776 8.46587 1.69156 6.9071 2.83035 6.38799Z" fill="white"/>
</g>
<defs>
<filter id="filter0_d_141_5462" x="-1" y="0" width="28" height="28" filterUnits="userSpaceOnUse" color-interpolation-filters="sRGB">
<feFlood flood-opacity="0" result="BackgroundImageFix"/>
<feColorMatrix in="SourceAlpha" type="matrix" values="0 0 0 0 0 0 0 0 0 0 0 0 0 0 0 0 0 0 127 0" result="hardAlpha"/>
<feOffset dy="2"/>
<feGaussianBlur stdDeviation="1"/>
<feComposite in2="hardAlpha" operator="out"/>
<feColorMatrix type="matrix" values="0 0 0 0 0 0 0 0 0 0 0 0 0 0 0 0 0 0 0.2 0"/>
<feBlend mode="normal" in2="BackgroundImageFix" result="effect1_dropShadow_141_5462"/>
<feBlend mode="normal" in="SourceGraphic" in2="effect1_dropShadow_141_5462" result="shape"/>
</filter>
</defs>
</svg>
