<svg width="25" height="27" viewBox="0 0 25 27" fill="none" xmlns="http://www.w3.org/2000/svg">
<g filter="url(#filter0_d_141_5460)">
<path d="M12.5 1.5C18.2916 1.5 23 6.20842 23 12C23 17.7916 18.2916 22.5 12.5 22.5C6.70842 22.5 2 17.7916 2 12C2 6.20842 6.70842 1.5 12.5 1.5ZM17.6133 14.5684C17.4348 14.3151 17.1189 14.1974 16.8184 14.2725L16.7871 14.2803L16.6924 14.3027C16.6096 14.3227 16.4885 14.3522 16.3389 14.3867C16.0393 14.4558 15.6246 14.5477 15.165 14.6396C14.2242 14.8278 13.1666 15 12.5 15C11.8334 15 10.7758 14.8278 9.83496 14.6396C9.3754 14.5477 8.96067 14.4558 8.66113 14.3867C8.5115 14.3522 8.39042 14.3227 8.30762 14.3027L8.21289 14.2803L8.18164 14.2725C7.88111 14.1974 7.56516 14.3151 7.38672 14.5684C7.20848 14.8216 7.20418 15.1583 7.37598 15.416L7.37988 15.4219L7.38672 15.4316L7.40625 15.46C7.42248 15.4828 7.4451 15.5133 7.47363 15.5508C7.53086 15.6259 7.61333 15.7288 7.7207 15.8496C7.93499 16.0907 8.25265 16.408 8.6748 16.7246C9.52168 17.3598 10.8009 18 12.5 18C14.1991 18 15.4783 17.3598 16.3252 16.7246C16.7474 16.408 17.065 16.0907 17.2793 15.8496C17.3867 15.7288 17.4691 15.6259 17.5264 15.5508C17.5549 15.5133 17.5775 15.4828 17.5938 15.46L17.6133 15.4316L17.6201 15.4219L17.6221 15.4189L17.623 15.417C17.7948 15.1593 17.7915 14.8216 17.6133 14.5684ZM9.5 8.25C8.25736 8.25 7.25 9.25736 7.25 10.5C7.25 10.9142 7.58579 11.25 8 11.25C8.38817 11.25 8.70747 10.9551 8.74609 10.5771L8.75391 10.4229C8.79253 10.0449 9.11183 9.75 9.5 9.75C9.88817 9.75 10.2075 10.0449 10.2461 10.4229L10.2539 10.5771C10.2925 10.9551 10.6118 11.25 11 11.25C11.4142 11.25 11.75 10.9142 11.75 10.5C11.75 9.25736 10.7426 8.25 9.5 8.25ZM15.5 8.25C14.2574 8.25 13.25 9.25736 13.25 10.5C13.25 10.9142 13.5858 11.25 14 11.25C14.3882 11.25 14.7075 10.9551 14.7461 10.5771L14.7539 10.4229C14.7925 10.0449 15.1118 9.75 15.5 9.75C15.8882 9.75 16.2075 10.0449 16.2461 10.4229L16.2539 10.5771C16.2925 10.9551 16.6118 11.25 17 11.25C17.4142 11.25 17.75 10.9142 17.75 10.5C17.75 9.25736 16.7426 8.25 15.5 8.25Z" fill="white"/>
</g>
<defs>
<filter id="filter0_d_141_5460" x="-1.5" y="0" width="28" height="28" filterUnits="userSpaceOnUse" color-interpolation-filters="sRGB">
<feFlood flood-opacity="0" result="BackgroundImageFix"/>
<feColorMatrix in="SourceAlpha" type="matrix" values="0 0 0 0 0 0 0 0 0 0 0 0 0 0 0 0 0 0 127 0" result="hardAlpha"/>
<feOffset dy="2"/>
<feGaussianBlur stdDeviation="1"/>
<feComposite in2="hardAlpha" operator="out"/>
<feColorMatrix type="matrix" values="0 0 0 0 0 0 0 0 0 0 0 0 0 0 0 0 0 0 0.2 0"/>
<feBlend mode="normal" in2="BackgroundImageFix" result="effect1_dropShadow_141_5460"/>
<feBlend mode="normal" in="SourceGraphic" in2="effect1_dropShadow_141_5460" result="shape"/>
</filter>
</defs>
</svg>
